PathFileType	4	(X/Y/Z)	56_2_59_p0_0-166.trc
DataRate	CameraRate	NumFrames	NumMarkers	Units	OrigDataRate	OrigDataStartFrame	OrigNumFrames
51.0	51.0	7	27	m	51.0	41	167
Frame#	Time	RHip			RKnee			RAnkle			RBigToe			RSmallToe			RHeel			LHip			LKnee			LAnkle			LBigToe			LSmallToe			LHeel			Neck			Head			Nose			RShoulder			RElbow			RWrist			RThumb			RIndex			RPinky			LShoulder			LElbow			LWrist			LThumb			LIndex			LPinky			
		X1	Y1	Z1	X2	Y2	Z2	X3	Y3	Z3	X4	Y4	Z4	X5	Y5	Z5	X6	Y6	Z6	X7	Y7	Z7	X8	Y8	Z8	X9	Y9	Z9	X10	Y10	Z10	X11	Y11	Z11	X12	Y12	Z12	X13	Y13	Z13	X14	Y14	Z14	X15	Y15	Z15	X16	Y16	Z16	X17	Y17	Z17	X18	Y18	Z18	X19	Y19	Z19	X20	Y20	Z20	X21	Y21	Z21	X22	Y22	Z22	X23	Y23	Z23	X24	Y24	Z24	X25	Y25	Z25	X26	Y26	Z26	X27	Y27	Z27	
41	0.803921568627451	0.4381702643098476	0.6735177408503611	0.26404314030316806	0.42511869583261835	0.7941039688846616	0.6566301383087008	0.49133795975746786	1.0918774935164013	1.08888744145568	0.39242303027788344	0.8443174565361812	1.1297911435148253	0.46898435242283276	0.9005324795018285	1.1551905202625723	0.5107220575153802	1.1718143525605844	1.121278098825911	0.24734135022005943	0.7657575664914745	0.24337947067530147	0.29659039731843306	0.9380959116489066	0.6528451258073495	0.3325137491912411	1.112808157222761	1.0343373738289152	0.24112000733129446	0.8879781096772039	1.1202491347142798	0.2286267568853496	0.9867310781093017	1.1304935931861648	0.36298780698024824	1.1773213460384506	1.0938255305300684	0.35143741342972307	0.5254562325553298	-0.24361007262435821	0.3390524405745529	0.39432923634299866	-0.4545947443641985	0.3022754953571976	0.3830369034899518	-0.3194571530944866	0.4926767250118916	0.4893533185768513	-0.12170052427396347	0.5710762055032793	0.5816406444368761	0.11127886637688016	0.6771538182852738	0.6238536325418713	0.3764982304345466	0.7192471154139399	0.5890659257252304	0.4887122666103984	0.7237273418345019	0.5931576890212369	0.4972207901401045	0.7271838698948544	0.7003076573558977	0.5007654364623342	0.22143412621303568	0.653114542583765	-0.1876480663803993	0.09683821448653851	0.7034862649751501	0.024693164631011993	-0.09785145587033987	0.7584340636644374	0.1846907930786339	-0.19183171202540153	0.7403763694760043	0.25131648868505485	-0.21777479153582815	0.7782360555300154	0.25669303506254293	-0.15012051453010375	0.793376167664009	0.2866621324479392
42	0.8235294117647058	0.44583372998636345	0.684317519465296	0.2638400588967003	0.4251404049309333	0.7940313107079927	0.6566954797245932	0.5001804183208708	1.106182287621171	1.0926275442955269	0.4003098810425042	0.856398872751441	1.1334387080288548	0.4772037159884112	0.9130964240172128	1.158852114264948	0.5110911361494985	1.1726095712695959	1.1214955693434594	0.2550278488221535	0.7784683206787472	0.24313667729898567	0.29717720408134995	0.9362846671355783	0.648899724780303	0.33305781846207466	1.1097837881625043	1.0291982058309883	0.24138758652061834	0.8882183688946491	1.1204164336866742	0.22895111226533837	1.0048823480550917	1.1347728608893244	0.36378843539965466	1.1743407446708773	1.086962184554122	0.35849345053034276	0.5358711089244266	-0.2458167126627835	0.33897187378760313	0.3943278757546342	-0.45464267501475497	0.3022079797062869	0.38308518930882973	-0.3195715196730277	0.49263778946231346	0.488984908600947	-0.12513710504555992	0.5710714636040153	0.5816392498556225	0.11127825161802726	0.676985315243085	0.6242158328318718	0.37644401039840225	0.7196884710345932	0.5879585293214445	0.4811756563454221	0.7241114075279603	0.5901913371553632	0.4892198628009667	0.716766872199238	0.7025092650003818	0.4999900699413729	0.22155213348587308	0.653238155610105	-0.18774894197952408	0.08461032821304407	0.7048908671343175	0.020632973974540128	-0.11672156397713791	0.7409819010664741	0.1732812241544264	-0.2274307250723084	0.7531572240821599	0.2213086607203141	-0.23347456274072734	0.7472202901155673	0.24871605936158175	-0.16874269028833547	0.8367887718930559	0.27733705892551985
43	0.8431372549019608	0.4447852925004706	0.6822177179874117	0.2602255054391918	0.4330768415669767	0.8057096112452945	0.6583336210112182	0.4985403223789899	1.1030536646302065	1.0877602218727431	0.4157533374542584	0.8795784241410706	1.1446285794068343	0.4776890759690587	0.9137223178005947	1.158916927502854	0.5084189454074105	1.167898534643753	1.1157451010263857	0.25509718370379264	0.778600908425579	0.24312818840253347	0.2970954874659762	0.9362746358793583	0.6488599438526966	0.33292042316321746	1.109563465449142	1.0289632798052804	0.24881592890192575	0.9026166717173788	1.1243011533051506	0.2296609930849712	1.0022754365929638	1.1302896098416313	0.3621353085681963	1.1713209615986266	1.0827736536521446	0.3585390867050494	0.535822809856714	-0.2458387516900883	0.3384529720996278	0.39182966110802697	-0.4607082996026056	0.2954981295152578	0.3735676925699068	-0.3205317243257257	0.492726325490925	0.48905058385778977	-0.12514424383578152	0.5710004434414846	0.5815695819988221	0.11126725728210383	0.6794822914733807	0.6405466992296289	0.37654671359393455	0.7200968708306555	0.5873179976511869	0.47721088211027485	0.7201394097617609	0.5912589722696957	0.48896746656675805	0.7142143153697676	0.7191699206045952	0.5040711798745997	0.22143730070203507	0.6529702326122603	-0.18768233839529128	0.0751952121738749	0.700767781757956	0.017100309571464987	-0.13327766402236121	0.7126377943836172	0.16564020961103396	-0.23725403557698382	0.7078670156446696	0.1699677404897441	-0.24016411158233214	0.7197044889797256	0.20249907866934366	-0.2223805600436866	0.7505817418606432	0.2552418964105527
44	0.8627450980392157	0.43969961657529405	0.6808078773616447	0.2598326896202983	0.4330069295079046	0.805713023034261	0.6585063586848304	0.49852661380277596	1.1030302797201201	1.087769387325739	0.4152226151557188	0.8822524933556904	1.1496605411417986	0.4779405732864795	0.9140429860130994	1.1589984797210668	0.5088544501155439	1.168916274914691	1.116073808146085	0.25500743511346885	0.7785530318776821	0.24317628578005288	0.29714401885317226	0.9360751427785273	0.6489474558116889	0.3323105695367661	1.112305295017803	1.033660961048554	0.24900857127245932	0.9032018866296068	1.1243538945217624	0.22878621033672333	0.9868867714474181	1.130231165808409	0.3617688084544829	1.1747901997780572	1.087825851605635	0.35865014558241326	0.534683642662338	-0.2488422168914535	0.33852178316396064	0.3919291580323291	-0.461049064197163	0.29551317161895957	0.3728923086617725	-0.3239564123653478	0.49285480244916097	0.48789064039491603	-0.12892011992039684	0.5708870629030556	0.5814545177317175	0.1112230811173154	0.6791038131567655	0.6404354838878198	0.3764123717789008	0.7257793584979609	0.6213126302022509	0.47899370198040125	0.722968697873907	0.6083269642267891	0.4937448049543703	0.708177305691063	0.7152297515123761	0.49926793700271244	0.2215210254361626	0.651970980893445	-0.19065257284511358	0.06141229340128417	0.7010873171987717	0.01247671328890567	-0.14924241347030423	0.6955821960330402	0.14715537616338348	-0.2553825225403628	0.7118528269593368	0.15131466553888726	-0.2684281119497903	0.7155617738992837	0.1646141664802511	-0.23982763330244758	0.7205802759781886	0.21787750905007958
45	0.8823529411764706	0.44469310697975534	0.6821380514601958	0.26013894895768114	0.43312076663803684	0.8058345780277938	0.6584272631040587	0.4984737568249524	1.102953681185612	1.087767045688144	0.41523947677733253	0.8823223226567557	1.1497565992683765	0.4776999400361107	0.9139487420879544	1.1591222304380069	0.508654944440218	1.1683869021498956	1.1159037743107052	0.24754117819613317	0.7663116319511624	0.2434331888403152	0.29649817098690134	0.9377840081995267	0.6528121468775098	0.33232718327408906	1.112343533404842	1.033587490348705	0.24882334886979884	0.903120615965956	1.1243519312036703	0.2290435600020454	1.0050145875833383	1.1343175152537206	0.36255490565041915	1.1718004487444418	1.081725766047924	0.3588280505737086	0.5337008862812642	-0.25184293136291463	0.33850845226140225	0.39183546529018215	-0.46108721389689883	0.29520316876156333	0.37310163838731364	-0.32097499432803656	0.4929120824579407	0.4879879360877032	-0.12896625355410188	0.5706821268317803	0.5812918787556387	0.10758224881540425	0.6654561873127762	0.6295679502238567	0.3758925261753866	0.7126952510328811	0.6114223030773203	0.4821815619806777	0.7250993251884782	0.6238299841320981	0.4988646954616951	0.7116462225820943	0.7162489114896989	0.503381710640947	0.2217959615415465	0.6666343374448548	-0.1933233269840752	0.05434111927762035	0.7033383031830457	0.0046504480131129775	-0.15634223123431698	0.6807772549274315	0.10658664636664411	-0.27833280361179413	0.7026673992838175	0.11522487359330924	-0.2962458472375346	0.6781543154552369	0.14301169916821335	-0.2589529307610405	0.6827502603085592	0.16559945086181624
46	0.9019607843137255	0.44376176195506284	0.6800384454042812	0.25631863157062007	0.43316277934518227	0.8058641231848218	0.6585755135745164	0.49274269723529723	1.1009454729922854	1.0867627806676639	0.4160561251055569	0.880487079028148	1.1448955823834535	0.47819062123791134	0.9147849569911554	1.1590632649738792	0.5081159781925667	1.1679811945488843	1.1158318298252812	0.2547502776525107	0.7768781641377801	0.2385541497064635	0.29641479424577977	0.9376179061442893	0.652662205062923	0.3332101159996002	1.1102830093679932	1.0246383319082824	0.24836203786970362	0.9017505079413438	1.1243680348929506	0.22877058792953406	0.9868149575000612	1.1303762242029682	0.36253592601483015	1.1720698145474255	1.0775511586192286	0.35893779561374495	0.5339921493225623	-0.2518342869036817	0.33800202835414106	0.3901366619793979	-0.46409914778058	0.29446061125393685	0.38306861333750114	-0.33021580024873504	0.49301445206554967	0.48823146111187443	-0.12894208953920544	0.5704302949658586	0.5809780153926305	0.1074976972373997	0.6562111663257514	0.6174740797168199	0.375281164466922	0.720649633939207	0.6228484663011498	0.49386873641351237	0.7215585824626084	0.6085239876619645	0.5095740453537277	0.6969666149596158	0.7049132899527948	0.5072292385160629	0.22216928416013396	0.6660251255491617	-0.1963662503215574	0.04242895146743761	0.6897340486087332	0.005557610328756122	-0.21157490240289367	0.6000450888846238	0.0653753361873155	-0.3061472167587942	0.6650613836092786	0.07504116043480502	-0.32410562115275027	0.6260721926341445	0.07075965044147095	-0.30959408982152165	0.5814168861779514	0.1133352022497056
47	0.9215686274509803	0.44497077972484084	0.6824490361738711	0.2600230029033868	0.43331563408790097	0.8062340858745128	0.6584886555738608	0.49827014613390164	1.1027648707110014	1.0877577414189565	0.4152090229414167	0.8823729815230515	1.1497538992435072	0.4779842693809174	0.9143441538589004	1.1590737037791676	0.5081916627607214	1.1680192281479638	1.1158543063181177	0.2558560364544115	0.7797143113025395	0.24295650798860474	0.29659526417585985	0.9376087817795451	0.6527231922898494	0.33302839129095024	1.1094182136201134	1.0289276082320837	0.2553862919741838	0.915757107022512	1.1283666441813607	0.22879576554030867	0.986775359616679	1.1300795259407017	0.36102004498604917	1.1687200218850842	1.0779328920502078	0.3589820079845957	0.5341029077275633	-0.251869480609115	0.33809335960997	0.3901236922134311	-0.4640094436644921	0.2875195051271996	0.37432329634338357	-0.3283118485313525	0.4883947318756357	0.4887829917311152	-0.12505372520741256	0.5705194139409966	0.5811089284779308	0.1076441390074279	0.648620586797798	0.619853047887269	0.3713666808939575	0.713430680379512	0.610445733371221	0.5012111704622354	0.7207091785864802	0.6113352749141047	0.516046116930648	0.6960871507442734	0.7063658337183171	0.5073705101000784	0.22228474608340465	0.6662118141628588	-0.196604531971409	0.0393087356312396	0.7315116410836515	-0.007524816581382938	-0.21727340036488338	0.6117415154110587	-0.014787626101828901	-0.30725776819198014	0.6330592605984476	-0.0424599197379177	-0.34332968712533674	0.6092840054645102	-0.045104133031524184	-0.3485037160770748	0.5719149829605	-0.008416936305042207
